<svg preserveAspectRatio="none" overflow="visible" style="display: block;" width="30" height="30" viewBox="0 0 30 30" fill="none" xmlns="http://www.w3.org/2000/svg">
<g id="fwd-10">
<path id="Vector" d="M15 7C13.296 7.00128 11.6369 7.54662 10.2644 8.55658C8.89198 9.56655 7.87786 10.9884 7.36983 12.6149C6.86179 14.2414 6.88638 15.9876 7.44002 17.5992C7.99365 19.2108 9.04741 20.6035 10.4478 21.5744C11.8481 22.5453 13.5219 23.0437 15.2253 22.997C16.9287 22.9503 18.5726 22.3609 19.9177 21.3147C21.2627 20.2685 22.2386 18.8202 22.7031 17.1807C23.1675 15.5412 23.0964 13.7962 22.5 12.2M15 7L19 4M15 7L19 10" stroke="#FFF8F1" stroke-width="1.7" stroke-linecap="round" stroke-linejoin="round"/>
</g>
</svg>
